PathFileType	4	(X/Y/Z)	C:/Users/opensim2020/Desktop/walking_exp_matlab/subject02_walking12_straight_03.trc	
DataRate	CameraRate	NumFrames	NumMarkers	Units	OrigDataRate	OrigDataStartFrame	OrigNumFrames	
100.00	100.00	4	42	mm	100.00	1541	127	
Frame#	Time	LFHD			RFHD			LBHD			RBHD			C7			T10			CLAV			STRN			RBAK			LSHO			LUPA			LELB			LFRM			LWRA			LWRB			LFIN			RSHO			RUPA			RELB			RFRM			RWRA			RWRB			RFIN			LASI			RASI			LPSI			RPSI			LTHI			LKNE			LTIB			LANK			LHEE			LTOE			RTHI			RKNE			RTIB			RANK			RHEE			RTOE			*39			*40			*41			
		X1	Y1	Z1	X2	Y2	Z2	X3	Y3	Z3	X4	Y4	Z4	X5	Y5	Z5	X6	Y6	Z6	X7	Y7	Z7	X8	Y8	Z8	X9	Y9	Z9	X10	Y10	Z10	X11	Y11	Z11	X12	Y12	Z12	X13	Y13	Z13	X14	Y14	Z14	X15	Y15	Z15	X16	Y16	Z16	X17	Y17	Z17	X18	Y18	Z18	X19	Y19	Z19	X20	Y20	Z20	X21	Y21	Z21	X22	Y22	Z22	X23	Y23	Z23	X24	Y24	Z24	X25	Y25	Z25	X26	Y26	Z26	X27	Y27	Z27	X28	Y28	Z28	X29	Y29	Z29	X30	Y30	Z30	X31	Y31	Z31	X32	Y32	Z32	X33	Y33	Z33	X34	Y34	Z34	X35	Y35	Z35	X36	Y36	Z36	X37	Y37	Z37	X38	Y38	Z38	X39	Y39	Z39	X40	Y40	Z40	X41	Y41	Z41	X42	Y42	Z42	

16	0.150	-1072.25488	-375.07285	1729.67981	-932.77295	-403.88275	1708.43445	-1108.45581	-495.62280	1645.91394	-972.95331	-535.81885	1622.70837	-1036.49207	-557.15515	1502.35718	-1032.65686	-601.70697	1227.02734	-1039.05481	-411.75909	1440.72388	-1021.68970	-355.33075	1271.41138	-972.29944	-613.37653	1328.88452	-1211.99731	-477.60703	1475.93311	-1291.87378	-521.80432	1278.17236	-1297.82288	-554.95477	1143.11719	-1317.67297	-586.35040	1018.52863	-1278.80212	-592.94904	878.80646	-1327.60303	-616.48254	898.42383	-1321.79224	-639.44110	832.12756	-846.02124	-488.72540	1476.28296	-758.92993	-495.18814	1285.34143	-732.11682	-445.77905	1144.61621	-732.70715	-361.30881	1054.46936	-773.08325	-259.51584	975.74615	-738.16528	-292.08072	944.33282	-744.08649	-226.36230	917.62927	-1149.20703	-341.27542	987.97290	-903.57672	-379.95633	945.33118	-1097.89136	-564.25854	1016.26337	-982.17120	-583.47003	1005.19141	-1225.43762	-332.27368	685.71405	-1199.45007	-322.05042	481.74396	-1213.29199	-359.25375	290.68546	-1188.00256	-345.28738	70.06428	-1140.95129	-384.94321	41.34647	-1188.69263	-187.80687	34.15745	-841.78766	-510.20856	642.26746	-854.01788	-537.58728	443.14197	-859.41870	-688.71289	336.40869	-903.04578	-832.05963	213.51672	-968.94519	-881.21100	205.44362	-891.89429	-795.88068	53.43439	-1005.20105	-498.15295	1785.71350						 
17	0.160	-1073.71472	-362.92447	1731.44128	-934.13940	-392.12213	1710.02637	-1110.01563	-483.58865	1647.87817	-974.58691	-523.56964	1624.58411	-1038.50708	-545.46594	1504.28760	-1034.83398	-589.92493	1228.80334	-1040.81250	-400.17194	1442.63745	-1023.91193	-343.65631	1273.25122	-974.35968	-602.01233	1330.80579	-1213.64429	-465.95422	1477.90906	-1295.16052	-506.18332	1279.69080	-1302.61218	-536.95972	1144.28394	-1323.50293	-565.54547	1019.16040	-1286.32690	-568.18512	879.05096	-1334.63660	-592.91223	898.65613	-1330.30652	-612.45288	831.53802	-847.78986	-477.31235	1477.48865	-761.32092	-484.73822	1286.10461	-735.45490	-438.17807	1144.85657	-734.88757	-356.44385	1052.31250	-773.09320	-255.54590	970.65472	-738.86035	-289.51767	940.36621	-743.50775	-224.20355	911.95667	-1152.55457	-330.06516	989.55786	-906.69037	-367.59525	946.50476	-1099.43311	-553.06287	1017.38220	-983.98395	-571.73798	1006.75189	-1226.56628	-324.26642	686.33081	-1200.82739	-318.77234	481.74307	-1213.29028	-358.95163	291.09607	-1187.97729	-345.40094	70.09440	-1140.91785	-385.05426	41.28818	-1188.71411	-187.84596	34.03092	-843.10999	-489.74265	641.31293	-854.55267	-512.63977	442.73495	-860.65869	-665.37677	339.43533	-906.04797	-811.41034	221.01459	-972.13617	-860.60138	213.46886	-892.22577	-777.97284	61.02318	-1006.64740	-486.16010	1787.59790						 
18	0.170	-1074.93494	-350.84274	1733.28552	-935.44318	-380.27048	1711.69824	-1111.58240	-471.56042	1649.94641	-976.19434	-512.00104	1626.51367	-1040.47498	-533.63367	1506.45557	-1037.01624	-578.30194	1230.71008	-1042.37817	-388.75189	1444.56213	-1025.81470	-332.15335	1275.17981	-976.41077	-590.68506	1332.76343	-1215.58215	-453.81711	1480.12256	-1298.47314	-490.37653	1281.49158	-1307.58252	-518.71539	1145.59485	-1329.29382	-544.33734	1019.92853	-1293.65076	-542.62671	879.64740	-1341.18140	-568.67377	898.99860	-1338.65540	-584.48608	831.27954	-849.48145	-466.02069	1478.83740	-763.65582	-474.85406	1287.02710	-738.76654	-430.23578	1145.06580	-735.96313	-350.27216	1050.74011	-773.03168	-251.98669	965.63812	-739.20508	-287.44904	936.51379	-742.79199	-223.57715	905.77795	-1155.07959	-319.38483	990.70178	-908.95813	-355.68802	948.05676	-1101.13525	-541.59070	1018.68958	-985.88910	-560.93707	1008.78168	-1227.38794	-316.79364	686.53296	-1202.11084	-315.46872	481.96417	-1213.64490	-357.92068	291.42264	-1188.00220	-345.47241	70.06803	-1140.92542	-385.17017	41.26210	-1188.75977	-187.92007	33.99892	-844.68665	-470.22540	642.03876	-855.22076	-488.48395	443.58969	-862.96045	-641.34979	343.04910	-909.63373	-789.70734	227.65300	-976.18646	-838.72516	219.26378	-892.18811	-757.12811	68.19926	-1007.69910	-473.67758	1789.39404						 
19	0.180	-1076.02527	-338.68405	1735.09509	-936.60522	-368.18680	1713.53455	-1113.26160	-459.58392	1652.14209	-977.53577	-499.96487	1628.40112	-1042.30896	-521.84802	1508.71533	-1039.20874	-566.72424	1232.65808	-1043.83679	-377.33951	1446.59656	-1027.59106	-320.77542	1277.12000	-978.61511	-579.47382	1334.99561	-1217.31897	-441.55350	1482.38159	-1301.57361	-474.65039	1283.40686	-1312.18787	-500.40491	1147.15698	-1334.97693	-522.71124	1020.92029	-1300.86548	-516.36499	880.69208	-1347.62939	-543.93475	899.56891	-1346.74487	-555.66663	831.49481	-850.84454	-454.95734	1480.16760	-765.88208	-464.53555	1287.91846	-741.96594	-421.92117	1145.43372	-737.58362	-345.58740	1048.59460	-772.85596	-248.98993	960.60797	-739.53864	-285.95776	932.75336	-742.20905	-222.68503	899.56622	-1157.59143	-308.54456	991.65234	-910.60370	-344.28940	949.90527	-1102.95898	-531.20752	1020.84839	-988.27917	-549.71680	1010.57910	-1228.40918	-309.75806	686.62451	-1203.53625	-312.14816	482.21985	-1214.81421	-356.42542	292.03696	-1188.05835	-345.54834	70.04955	-1141.00635	-385.56351	41.46776	-1188.85522	-188.07712	33.91967	-846.29205	-451.07224	643.51166	-856.68170	-463.60559	445.30914	-865.64551	-617.22363	346.68726	-913.33716	-766.58655	232.97105	-980.28931	-815.68677	223.89102	-892.19635	-735.05402	74.30822	-1008.78265	-461.49796	1791.51392						 
